<svg id="svglogo" xmlns="http://www.w3.org/2000/svg" width="467.1" height="144.21" viewBox="0 0 467.1 144.21">
  <path id="Path_1" data-name="Path 1" d="M467.47,7.25V25h-1.7l-3.2-.89a25.29,25.29,0,0,0-6-.88c-4.4,0-7.4.88-9,2.54s-2.4,5.2-2.4,10.4v.66h17.6V54h-16.9v61.6H423.08V54H397.37v61.6h-22.9V54h-9.79V36.85h9.79V34.64c0-19.24,9.3-28.86,28-28.86A82.22,82.22,0,0,1,419,7.25V25h-1.7l-3.2-.89a25.29,25.29,0,0,0-6-.88c-4.4,0-7.4.88-9,2.54s-2.4,5.2-2.4,10.4v.66h26.4V34.64c0-19.24,9.3-28.86,28-28.86a82.7,82.7,0,0,1,16.37,1.47Z" transform="translate(-0.37 -0.25)" fill="#2d2d2d"/>
  <path id="Path_2" data-name="Path 2" d="M346.17,45.59c6.8,7.52,10.2,17.66,10.2,30.66s-3.4,23.11-10.2,30.63-16.4,11.17-28.8,11.17-21.9-3.8-28.79-11.2-10.21-17.69-10.21-30.6,3.4-23.33,10.3-30.77,16.41-11.23,28.7-11.23C329.87,34.45,339.47,38.07,346.17,45.59Zm-14.5,42.57a50.112,50.112,0,0,0,1.1-11.71,52.649,52.649,0,0,0-1.1-11.61,21.521,21.521,0,0,0-3.2-7.52,11.74,11.74,0,0,0-4.89-4.07A16.32,16.32,0,0,0,317.37,52a16.06,16.06,0,0,0-5.9,1,12.21,12.21,0,0,0-4.89,4,19.83,19.83,0,0,0-3.3,7.52,49.751,49.751,0,0,0-1.2,11.92,51.12,51.12,0,0,0,1.1,11.17,21.379,21.379,0,0,0,3.19,7.61,12.91,12.91,0,0,0,4.8,4,16.8,16.8,0,0,0,12.3.11,11.17,11.17,0,0,0,4.8-3.87,23.45,23.45,0,0,0,3.4-7.3Z" transform="translate(-0.37 -0.25)" fill="#2d2d2d"/>
  <path id="Path_3" data-name="Path 3" d="M262.47,64.39v51.2h-22.9V76.25c0-3.87-.1-7.19-.2-9.84a16.511,16.511,0,0,0-1.4-6.53,7.16,7.16,0,0,0-3.4-3.63,15.19,15.19,0,0,0-6.6-1.1,14.19,14.19,0,0,0-5.6,1.1,44.37,44.37,0,0,0-6.7,3.65v55.74h-22.9V76.25c0-3.87-.1-7.08-.2-9.73a18.33,18.33,0,0,0-1.4-6.53,7.4,7.4,0,0,0-3.5-3.65,16.63,16.63,0,0,0-13,.45A50.629,50.629,0,0,0,169,60v55.63H146.1V36.85H169v8.74a58.37,58.37,0,0,1,11.3-8,25.56,25.56,0,0,1,11.9-2.88,22.24,22.24,0,0,1,12.4,3.43A22.91,22.91,0,0,1,213,48.31a75.23,75.23,0,0,1,13.3-10.06A25.52,25.52,0,0,1,239,34.6c7.7,0,13.5,2.54,17.5,7.63S262.47,54.77,262.47,64.39Z" transform="translate(-0.37 -0.25)" fill="#ea3c78"/>
  <path id="Path_4" data-name="Path 4" d="M139.1,36.6,99.5,144.21H74.7l11.4-29.42L58.4,36.6H82.3L99.4,87.48,115.6,36.6Z" fill="#ea3c78"/>
  <path id="Path_5" data-name="Path 5" d="M124.8,0V1.22l-20.7,24.1H89.6L104.1,0Z" fill="#ea3c78"/>
  <path id="Path_6" data-name="Path 6" d="M54,97.67v17.26a79.514,79.514,0,0,1-7.8,1.66,66.779,66.779,0,0,1-10.1.55q-13.35,0-19.8-6c-4.3-4-6.5-10.73-6.5-20.46V54H.37V36.85h9.4V14.25h22.9v22.6H54V54H32.67V82c0,2.77,0,5.2.1,7.19a16.05,16.05,0,0,0,1,5.53,7.16,7.16,0,0,0,3.1,3.87c1.5,1,3.7,1.44,6.5,1.44a13.62,13.62,0,0,0,4.6-.89,17.19,17.19,0,0,0,4-1.55h2Z" transform="translate(-0.37 -0.25)" fill="#ea3c78"/>
</svg>
