<svg id="Layer_1" data-name="Layer 1" xmlns="http://www.w3.org/2000/svg" viewBox="0 0 467.1 144.21"><defs><style>.cls-1{fill:#eee;}.cls-2{fill:#ea3c78;}</style></defs><title>svglogoDARKTHEME</title><path class="cls-1" d="M467.1,7V24.75h-1.7l-3.2-.89a25.36,25.36,0,0,0-6-.88c-4.4,0-7.4.88-9,2.54s-2.4,5.2-2.4,10.4v.66h17.6V53.75H445.5v61.6H422.71V53.75H397v61.6H374.1V53.75h-9.79V36.6h9.79V34.39c0-19.24,9.3-28.86,28-28.86A81.85,81.85,0,0,1,418.63,7V24.75h-1.7l-3.2-.89a25.36,25.36,0,0,0-6-.88c-4.4,0-7.4.88-9,2.54s-2.4,5.2-2.4,10.4v.66h26.4V34.39c0-19.24,9.3-28.86,28-28.86A83.22,83.22,0,0,1,467.1,7Z"/><path class="cls-1" d="M345.8,45.34C352.6,52.86,356,63,356,76s-3.4,23.11-10.2,30.63S329.4,117.8,317,117.8s-21.9-3.8-28.79-11.2S278,88.91,278,76s3.4-23.33,10.3-30.77S304.71,34,317,34C329.5,34.2,339.1,37.82,345.8,45.34ZM331.3,87.91a50.11,50.11,0,0,0,1.1-11.71,52.65,52.65,0,0,0-1.1-11.61,21.52,21.52,0,0,0-3.2-7.52A11.74,11.74,0,0,0,323.21,53,16.35,16.35,0,0,0,317,51.75a16.06,16.06,0,0,0-5.9,1,12.21,12.21,0,0,0-4.89,4,19.83,19.83,0,0,0-3.3,7.52,49.75,49.75,0,0,0-1.2,11.92,51.12,51.12,0,0,0,1.1,11.17A21.38,21.38,0,0,0,306,95a12.91,12.91,0,0,0,4.8,4,16.8,16.8,0,0,0,12.3.11,11.21,11.21,0,0,0,4.8-3.87A23.29,23.29,0,0,0,331.3,87.91Z"/><path class="cls-2" d="M262.1,64.14v51.2H239.2V76c0-3.87-.1-7.19-.2-9.84a16.51,16.51,0,0,0-1.4-6.53A7.12,7.12,0,0,0,234.2,56a15.22,15.22,0,0,0-6.6-1.1A14.16,14.16,0,0,0,222,56a43.89,43.89,0,0,0-6.7,3.65v55.74H192.4V76c0-3.87-.1-7.08-.2-9.73a18.33,18.33,0,0,0-1.4-6.53,7.4,7.4,0,0,0-3.5-3.65,16.63,16.63,0,0,0-13,.45,51,51,0,0,0-5.67,3.21v55.63h-22.9V36.6h22.9v8.74a58.37,58.37,0,0,1,11.3-8,25.53,25.53,0,0,1,11.9-2.88,22.28,22.28,0,0,1,12.4,3.43,22.85,22.85,0,0,1,8.4,10.17A75.23,75.23,0,0,1,225.93,38a25.52,25.52,0,0,1,12.7-3.65c7.7,0,13.5,2.54,17.5,7.63S262.1,54.52,262.1,64.14Z"/><polygon class="cls-2" points="139.1 36.6 99.5 144.21 74.7 144.21 86.1 114.79 58.4 36.6 82.3 36.6 99.4 87.48 115.6 36.6 139.1 36.6"/><polygon class="cls-2" points="124.8 0 124.8 1.22 104.1 25.32 89.6 25.32 104.1 0 124.8 0"/><path class="cls-2" d="M53.63,97.42v17.26a79.51,79.51,0,0,1-7.8,1.66,66.85,66.85,0,0,1-10.1.55q-13.35,0-19.8-6c-4.3-4-6.5-10.73-6.5-20.46V53.75H0V36.6H9.4V14H32.3V36.6H53.63V53.75H32.3v28c0,2.77,0,5.2.1,7.19a16.05,16.05,0,0,0,1,5.53,7.16,7.16,0,0,0,3.1,3.87c1.5,1,3.7,1.44,6.5,1.44a13.67,13.67,0,0,0,4.6-.89,17.36,17.36,0,0,0,4-1.55h2Z"/></svg>